<svg xmlns="http://www.w3.org/2000/svg" xmlns:xlink="http://www.w3.org/1999/xlink" width="42" height="44" viewBox="0 0 42 44">
    <defs>
        <path id="b" d="M32.692 26.833l2.83 3.135a4.59 4.59 0 0 1-.462 6.595 4.945 4.945 0 0 1-6.844-.479l-2.905-3.217a18.381 18.381 0 0 1-7.44 1.558C8.001 34.425 0 26.719 0 17.212 0 7.706 8.001 0 17.871 0s17.871 7.706 17.871 17.212c0 3.564-1.124 6.875-3.05 9.621z"/>
        <filter id="a" width="129.9%" height="129.2%" x="-15%" y="-9.3%" filterUnits="objectBoundingBox">
            <feOffset dy="2" in="SourceAlpha" result="shadowOffsetOuter1"/>
            <feGaussianBlur in="shadowOffsetOuter1" result="shadowBlurOuter1" stdDeviation="1.5"/>
            <feColorMatrix in="shadowBlurOuter1" values="0 0 0 0 0 0 0 0 0 0 0 0 0 0 0 0 0 0 0.2 0"/>
        </filter>
    </defs>
    <g fill="none" fill-rule="evenodd">
        <g transform="translate(3 1)">
            <use fill="#000" filter="url(#a)" xlink:href="#b"/>
            <use fill="#FFF" xlink:href="#b"/>
        </g>
        <path fill="#058A83" fill-rule="nonzero" d="M28.383 30.037a16.902 16.902 0 0 0 3.266-2.757l4.533 5.108a2.044 2.044 0 0 1-.204 2.952c-.9.756-2.277.669-3.065-.198l-4.53-5.105z"/>
        <path fill="#058A83" fill-rule="nonzero" d="M19.184 4.959c7.823-.842 14.875 4.583 15.75 12.116.874 7.535-4.756 14.325-12.581 15.168-7.822.844-14.875-4.58-15.749-12.116-.876-7.533 4.757-14.325 12.58-15.168zm.249 2.15c-6.58.709-11.334 6.44-10.598 12.777.736 6.339 6.687 10.917 13.268 10.207 6.58-.708 11.333-6.439 10.597-12.777-.735-6.339-6.686-10.916-13.267-10.207z"/>
        <path fill="#058A83" fill-rule="nonzero" d="M20.767 23.5c-3.625 0-6.846-1.673-9.578-3.846-.762-.605-.805-1.442-.03-2.08 2.728-2.242 5.943-3.906 9.606-3.906 3.664 0 6.878 1.664 9.605 3.906.776.638.734 1.475-.029 2.08-2.73 2.173-5.95 3.846-9.574 3.846zm0-8.184c-1.884 0-3.41 1.47-3.41 3.285 0 1.815 1.526 3.286 3.41 3.286 1.884 0 3.41-1.47 3.41-3.286 0-1.814-1.528-3.285-3.41-3.285zm4.058.599c.562.786.865 1.72.865 2.686 0 .964-.302 1.896-.862 2.682 1.361-.54 2.61-1.335 3.796-2.164.466-.324.484-.663.023-1.018-1.158-.893-2.443-1.651-3.822-2.186zm-8.12 5.368a4.607 4.607 0 0 1 .002-5.368c-1.379.535-2.664 1.293-3.821 2.186-.462.355-.443.694.022 1.018 1.187.828 2.435 1.622 3.796 2.164z"/>
        <path fill="#058A83" fill-rule="nonzero" d="M20.767 16.494c1.21 0 2.19.944 2.19 2.107 0 1.163-.98 2.109-2.19 2.109s-2.19-.944-2.19-2.109c0-.077.005-.155.014-.23.23.19.53.305.86.305.73 0 1.32-.57 1.32-1.274 0-.341-.14-.651-.367-.88.117-.018.24-.028.363-.028z"/>
    </g>
</svg>
